<svg width="144" height="144" viewBox="0 0 144 144" fill="none" xmlns="http://www.w3.org/2000/svg">
<rect width="144" height="144" fill="black"/>
<path d="M38.0653 17.616H40.5613V26.224H45.6653V28H38.0653V17.616ZM50.0986 17.616H53.1386L56.8826 28H54.3546L53.4266 25.264H49.6346L48.7226 28H46.2586L50.0986 17.616ZM52.8826 23.6L51.5706 19.696H51.5066L50.1946 23.6H52.8826ZM60.4341 19.392H57.2341V17.616H66.1141V19.392H62.9301V28H60.4341V19.392ZM67.5497 17.616H75.4697V19.392H70.0457V21.776H74.9417V23.552H70.0457V26.224H75.6297V28H67.5497V17.616ZM77.3153 17.616H79.8433L84.8673 24.704V17.616H87.0913V28H84.5633L79.5393 20.8V28H77.3153V17.616ZM93.9229 28.16C93.4536 28.16 93.0323 28.1387 92.6589 28.096C92.2963 28.0533 91.8963 27.9733 91.4589 27.856C90.9683 27.728 90.5629 27.5627 90.2429 27.36C89.9229 27.1467 89.6563 26.8533 89.4429 26.48C89.2189 26.1067 89.1069 25.664 89.1069 25.152V20.592C89.1069 18.5013 90.7123 17.456 93.9229 17.456C94.7443 17.456 95.8429 17.5733 97.2189 17.808V19.68C95.9816 19.3813 94.8936 19.232 93.9549 19.232C93.5603 19.232 93.2509 19.2427 93.0269 19.264C92.8136 19.2853 92.5896 19.3387 92.3549 19.424C91.8536 19.5947 91.6029 19.9733 91.6029 20.56V24.976C91.6029 25.9147 92.4616 26.384 94.1789 26.384C94.9149 26.384 95.9496 26.2293 97.2829 25.92V27.808C96.1416 28.0427 95.0216 28.16 93.9229 28.16ZM101.646 23.84L97.8858 17.616H100.718L102.91 21.68L105.086 17.616H107.934L104.142 23.808V28H101.646V23.84Z" fill="white"/>
<mask id="path-2-outside-1_307_3515" maskUnits="userSpaceOnUse" x="27" y="56" width="92" height="34" fill="black">
<rect fill="white" x="27" y="56" width="92" height="34"/>
<path d="M37.9533 89.48C35.2013 89.48 32.2413 89.32 29.0733 89V84.008C33.1693 84.456 36.0973 84.68 37.8573 84.68C39.4893 84.68 40.6733 84.568 41.4093 84.344C42.1453 84.12 42.6253 83.704 42.8493 83.096C43.1053 82.488 43.2333 81.528 43.2333 80.216V77.288H38.0493C36.3213 77.288 35.0733 77.272 34.3053 77.24C33.5373 77.176 32.6733 77.016 31.7133 76.76C30.7213 76.504 29.9693 76.136 29.4573 75.656C28.9453 75.176 28.4973 74.472 28.1133 73.544C27.7613 72.584 27.5853 71.464 27.5853 70.184V65.96C27.5853 64.488 27.8093 63.208 28.2573 62.12C28.7053 61 29.2813 60.12 29.9853 59.48C30.6253 58.936 31.4573 58.488 32.4813 58.136C33.5373 57.784 34.5773 57.56 35.6013 57.464C36.8173 57.4 37.9213 57.368 38.9133 57.368C40.4173 57.368 41.6013 57.416 42.4653 57.512C43.3613 57.576 44.3053 57.768 45.2973 58.088C46.3533 58.44 47.2013 58.92 47.8413 59.528C48.5133 60.104 49.0733 60.936 49.5213 62.024C49.9693 63.176 50.1933 64.488 50.1933 65.96V80.456C50.1933 83.688 49.2173 86.008 47.2653 87.416C45.3453 88.792 42.2413 89.48 37.9533 89.48ZM43.2333 72.632V65.336C43.2333 64.248 43.1373 63.496 42.9453 63.08C42.7853 62.664 42.4173 62.392 41.8413 62.264C41.2973 62.136 40.2893 62.072 38.8173 62.072C37.4733 62.072 36.5133 62.152 35.9373 62.312C35.3933 62.44 35.0253 62.728 34.8333 63.176C34.6413 63.592 34.5453 64.312 34.5453 65.336V70.088C34.5453 70.856 34.6413 71.416 34.8333 71.768C35.0253 72.088 35.4093 72.312 35.9853 72.44C36.5933 72.568 37.5533 72.632 38.8653 72.632H43.2333ZM55.8611 65.768H62.8691V68.6C63.3171 66.392 65.6051 65.288 69.7331 65.288C71.9091 65.288 73.5571 65.576 74.6771 66.152C75.7971 66.696 76.5491 67.56 76.9331 68.744C77.3171 67.528 78.0531 66.648 79.1411 66.104C80.2611 65.56 81.9411 65.288 84.1811 65.288C86.1971 65.288 87.7491 65.528 88.8371 66.008C89.9251 66.456 90.6771 67.16 91.0931 68.12C91.5411 69.08 91.7651 70.36 91.7651 71.96V89H84.7571V72.92C84.7571 71.896 84.6931 71.176 84.5651 70.76C84.4371 70.312 84.1491 70.008 83.7011 69.848C83.2851 69.688 82.5491 69.608 81.4931 69.608C80.1811 69.608 79.2371 69.688 78.6611 69.848C78.1171 70.008 77.7491 70.312 77.5571 70.76C77.3971 71.176 77.3171 71.896 77.3171 72.92V89H70.3091V72.92C70.3091 71.896 70.2451 71.176 70.1171 70.76C69.9891 70.312 69.7011 70.008 69.2531 69.848C68.8371 69.688 68.1011 69.608 67.0451 69.608C65.7331 69.608 64.7891 69.688 64.2131 69.848C63.6691 70.008 63.3011 70.312 63.1091 70.76C62.9491 71.176 62.8691 71.896 62.8691 72.92V89H55.8611V65.768ZM106.596 89.48C104.1 89.48 101.044 89.24 97.4279 88.76V84.104C101.876 84.776 104.964 85.112 106.692 85.112C108.164 85.112 109.252 84.968 109.956 84.68C110.66 84.392 111.012 83.864 111.012 83.096V81.656C111.012 80.856 110.788 80.296 110.34 79.976C109.892 79.624 109.012 79.448 107.7 79.448H104.676C102.212 79.448 100.308 78.968 98.9639 78.008C97.6199 77.016 96.9479 75.576 96.9479 73.688V70.856C96.9479 68.84 97.9079 67.416 99.8279 66.584C101.748 65.72 104.644 65.288 108.516 65.288C110.052 65.288 112.804 65.432 116.772 65.72V70.184C111.78 69.8 108.964 69.608 108.324 69.608C106.436 69.608 105.204 69.736 104.628 69.992C104.116 70.28 103.86 70.808 103.86 71.576V72.824C103.86 73.24 104.068 73.608 104.484 73.928C104.9 74.216 105.508 74.36 106.308 74.36H109.38C115.076 74.36 117.924 76.216 117.924 79.928V82.856C117.924 83.976 117.716 84.952 117.3 85.784C116.884 86.616 116.34 87.272 115.668 87.752C115.028 88.2 114.196 88.552 113.172 88.808C112.18 89.064 111.14 89.24 110.052 89.336C109.06 89.432 107.908 89.48 106.596 89.48Z"/>
</mask>
<path d="M37.9533 89.48C35.2013 89.48 32.2413 89.32 29.0733 89V84.008C33.1693 84.456 36.0973 84.68 37.8573 84.68C39.4893 84.68 40.6733 84.568 41.4093 84.344C42.1453 84.12 42.6253 83.704 42.8493 83.096C43.1053 82.488 43.2333 81.528 43.2333 80.216V77.288H38.0493C36.3213 77.288 35.0733 77.272 34.3053 77.24C33.5373 77.176 32.6733 77.016 31.7133 76.76C30.7213 76.504 29.9693 76.136 29.4573 75.656C28.9453 75.176 28.4973 74.472 28.1133 73.544C27.7613 72.584 27.5853 71.464 27.5853 70.184V65.96C27.5853 64.488 27.8093 63.208 28.2573 62.12C28.7053 61 29.2813 60.12 29.9853 59.48C30.6253 58.936 31.4573 58.488 32.4813 58.136C33.5373 57.784 34.5773 57.56 35.6013 57.464C36.8173 57.4 37.9213 57.368 38.9133 57.368C40.4173 57.368 41.6013 57.416 42.4653 57.512C43.3613 57.576 44.3053 57.768 45.2973 58.088C46.3533 58.44 47.2013 58.92 47.8413 59.528C48.5133 60.104 49.0733 60.936 49.5213 62.024C49.9693 63.176 50.1933 64.488 50.1933 65.96V80.456C50.1933 83.688 49.2173 86.008 47.2653 87.416C45.3453 88.792 42.2413 89.48 37.9533 89.48ZM43.2333 72.632V65.336C43.2333 64.248 43.1373 63.496 42.9453 63.08C42.7853 62.664 42.4173 62.392 41.8413 62.264C41.2973 62.136 40.2893 62.072 38.8173 62.072C37.4733 62.072 36.5133 62.152 35.9373 62.312C35.3933 62.44 35.0253 62.728 34.8333 63.176C34.6413 63.592 34.5453 64.312 34.5453 65.336V70.088C34.5453 70.856 34.6413 71.416 34.8333 71.768C35.0253 72.088 35.4093 72.312 35.9853 72.44C36.5933 72.568 37.5533 72.632 38.8653 72.632H43.2333ZM55.8611 65.768H62.8691V68.6C63.3171 66.392 65.6051 65.288 69.7331 65.288C71.9091 65.288 73.5571 65.576 74.6771 66.152C75.7971 66.696 76.5491 67.56 76.9331 68.744C77.3171 67.528 78.0531 66.648 79.1411 66.104C80.2611 65.56 81.9411 65.288 84.1811 65.288C86.1971 65.288 87.7491 65.528 88.8371 66.008C89.9251 66.456 90.6771 67.16 91.0931 68.12C91.5411 69.08 91.7651 70.36 91.7651 71.96V89H84.7571V72.92C84.7571 71.896 84.6931 71.176 84.5651 70.76C84.4371 70.312 84.1491 70.008 83.7011 69.848C83.2851 69.688 82.5491 69.608 81.4931 69.608C80.1811 69.608 79.2371 69.688 78.6611 69.848C78.1171 70.008 77.7491 70.312 77.5571 70.76C77.3971 71.176 77.3171 71.896 77.3171 72.92V89H70.3091V72.92C70.3091 71.896 70.2451 71.176 70.1171 70.76C69.9891 70.312 69.7011 70.008 69.2531 69.848C68.8371 69.688 68.1011 69.608 67.0451 69.608C65.7331 69.608 64.7891 69.688 64.2131 69.848C63.6691 70.008 63.3011 70.312 63.1091 70.76C62.9491 71.176 62.8691 71.896 62.8691 72.92V89H55.8611V65.768ZM106.596 89.48C104.1 89.48 101.044 89.24 97.4279 88.76V84.104C101.876 84.776 104.964 85.112 106.692 85.112C108.164 85.112 109.252 84.968 109.956 84.68C110.66 84.392 111.012 83.864 111.012 83.096V81.656C111.012 80.856 110.788 80.296 110.34 79.976C109.892 79.624 109.012 79.448 107.7 79.448H104.676C102.212 79.448 100.308 78.968 98.9639 78.008C97.6199 77.016 96.9479 75.576 96.9479 73.688V70.856C96.9479 68.84 97.9079 67.416 99.8279 66.584C101.748 65.72 104.644 65.288 108.516 65.288C110.052 65.288 112.804 65.432 116.772 65.72V70.184C111.78 69.8 108.964 69.608 108.324 69.608C106.436 69.608 105.204 69.736 104.628 69.992C104.116 70.28 103.86 70.808 103.86 71.576V72.824C103.86 73.24 104.068 73.608 104.484 73.928C104.9 74.216 105.508 74.36 106.308 74.36H109.38C115.076 74.36 117.924 76.216 117.924 79.928V82.856C117.924 83.976 117.716 84.952 117.3 85.784C116.884 86.616 116.34 87.272 115.668 87.752C115.028 88.2 114.196 88.552 113.172 88.808C112.18 89.064 111.14 89.24 110.052 89.336C109.06 89.432 107.908 89.48 106.596 89.48Z" fill="#2FFF00"/>
<path d="M29.0733 89H28.5733V89.452L29.0231 89.4975L29.0733 89ZM29.0733 84.008L29.1277 83.511L28.5733 83.4503V84.008H29.0733ZM42.8493 83.096L42.3885 82.902L42.3841 82.9125L42.3801 82.9231L42.8493 83.096ZM43.2333 77.288H43.7333V76.788H43.2333V77.288ZM34.3053 77.24L34.2638 77.7383L34.2741 77.7391L34.2845 77.7396L34.3053 77.24ZM31.7133 76.76L31.8421 76.2769L31.8383 76.2759L31.7133 76.76ZM29.4573 75.656L29.7993 75.2912H29.7993L29.4573 75.656ZM28.1133 73.544L27.6439 73.7161L27.6474 73.7257L27.6513 73.7352L28.1133 73.544ZM28.2573 62.12L28.7197 62.3104L28.7216 62.3057L28.2573 62.12ZM29.9853 59.48L29.6615 59.099L29.6551 59.1044L29.649 59.11L29.9853 59.48ZM32.4813 58.136L32.3232 57.6616L32.3188 57.6632L32.4813 58.136ZM35.6013 57.464L35.575 56.9647L35.5648 56.9652L35.5546 56.9662L35.6013 57.464ZM42.4653 57.512L42.4101 58.0089L42.4199 58.01L42.4297 58.0107L42.4653 57.512ZM45.2973 58.088L45.4554 57.6136L45.4508 57.6121L45.2973 58.088ZM47.8413 59.528L47.4969 59.8905L47.5062 59.8993L47.5159 59.9076L47.8413 59.528ZM49.5213 62.024L49.9874 61.8427L49.9837 61.8336L49.5213 62.024ZM47.2653 87.416L47.5566 87.8224L47.5578 87.8215L47.2653 87.416ZM43.2333 72.632V73.132H43.7333V72.632H43.2333ZM42.9453 63.08L42.4786 63.2595L42.4845 63.2747L42.4913 63.2895L42.9453 63.08ZM41.8413 62.264L41.7268 62.7507L41.7328 62.7521L41.8413 62.264ZM35.9373 62.312L36.0518 62.7987L36.0615 62.7964L36.0711 62.7938L35.9373 62.312ZM34.8333 63.176L35.2875 63.3856L35.2929 63.373L34.8333 63.176ZM34.8333 71.768L34.3944 72.0074L34.3993 72.0164L34.4046 72.0252L34.8333 71.768ZM35.9853 72.44L35.8768 72.9281L35.8823 72.9293L35.9853 72.44ZM37.9533 89.48V88.98C35.2205 88.98 32.2774 88.8211 29.1236 88.5025L29.0733 89L29.0231 89.4975C32.2052 89.8189 35.1822 89.98 37.9533 89.98V89.48ZM29.0733 89H29.5733V84.008H29.0733H28.5733V89H29.0733ZM29.0733 84.008L29.0189 84.505C33.1156 84.9531 36.0675 85.18 37.8573 85.18V84.68V84.18C36.1272 84.18 33.2231 83.9589 29.1277 83.511L29.0733 84.008ZM37.8573 84.68V85.18C39.4962 85.18 40.7435 85.0693 41.5549 84.8223L41.4093 84.344L41.2637 83.8657C40.6032 84.0667 39.4824 84.18 37.8573 84.18V84.68ZM41.4093 84.344L41.5549 84.8223C42.409 84.5624 43.0299 84.0521 43.3185 83.2689L42.8493 83.096L42.3801 82.9231C42.2207 83.3559 41.8816 83.6776 41.2637 83.8657L41.4093 84.344ZM42.8493 83.096L43.3101 83.29C43.6067 82.5857 43.7333 81.5418 43.7333 80.216H43.2333H42.7333C42.7333 81.5142 42.604 82.3903 42.3885 82.902L42.8493 83.096ZM43.2333 80.216H43.7333V77.288H43.2333H42.7333V80.216H43.2333ZM43.2333 77.288V76.788H38.0493V77.288V77.788H43.2333V77.288ZM38.0493 77.288V76.788C36.3219 76.788 35.0829 76.772 34.3261 76.7404L34.3053 77.24L34.2845 77.7396C35.0637 77.772 36.3207 77.788 38.0493 77.788V77.288ZM34.3053 77.24L34.3468 76.7417C33.6154 76.6808 32.7813 76.5273 31.8421 76.2769L31.7133 76.76L31.5845 77.2431C32.5654 77.5047 33.4593 77.6712 34.2638 77.7383L34.3053 77.24ZM31.7133 76.76L31.8383 76.2759C30.8927 76.0318 30.2284 75.6935 29.7993 75.2912L29.4573 75.656L29.1153 76.0208C29.7103 76.5785 30.5499 76.9762 31.5884 77.2441L31.7133 76.76ZM29.4573 75.656L29.7993 75.2912C29.3565 74.8762 28.943 74.2413 28.5753 73.3528L28.1133 73.544L27.6513 73.7352C28.0516 74.7027 28.5341 75.4758 29.1153 76.0208L29.4573 75.656ZM28.1133 73.544L28.5828 73.3719C28.2553 72.4789 28.0853 71.4195 28.0853 70.184H27.5853H27.0853C27.0853 71.5085 27.2673 72.6891 27.6439 73.7161L28.1133 73.544ZM27.5853 70.184H28.0853V65.96H27.5853H27.0853V70.184H27.5853ZM27.5853 65.96H28.0853C28.0853 64.5375 28.3019 63.3249 28.7197 62.3104L28.2573 62.12L27.795 61.9296C27.3167 63.0911 27.0853 64.4385 27.0853 65.96H27.5853ZM28.2573 62.12L28.7216 62.3057C29.1487 61.2377 29.6866 60.4273 30.3216 59.85L29.9853 59.48L29.649 59.11C28.876 59.8127 28.2619 60.7623 27.7931 61.9343L28.2573 62.12ZM29.9853 59.48L30.3091 59.861C30.89 59.3672 31.6626 58.9461 32.6439 58.6088L32.4813 58.136L32.3188 57.6632C31.252 58.0299 30.3606 58.5048 29.6615 59.099L29.9853 59.48ZM32.4813 58.136L32.6394 58.6103C33.6622 58.2694 34.6649 58.054 35.648 57.9618L35.6013 57.464L35.5546 56.9662C34.4898 57.066 33.4124 57.2986 32.3232 57.6617L32.4813 58.136ZM35.6013 57.464L35.6276 57.9633C36.8367 57.8997 37.9318 57.868 38.9133 57.868V57.368V56.868C37.9108 56.868 36.7979 56.9003 35.575 56.9647L35.6013 57.464ZM38.9133 57.368V57.868C40.4101 57.868 41.5729 57.9159 42.4101 58.0089L42.4653 57.512L42.5205 57.0151C41.6297 56.9161 40.4246 56.868 38.9133 56.868V57.368ZM42.4653 57.512L42.4297 58.0107C43.2798 58.0715 44.1841 58.2543 45.1438 58.5639L45.2973 58.088L45.4508 57.6121C44.4265 57.2817 43.4428 57.0805 42.5009 57.0133L42.4653 57.512ZM45.2973 58.088L45.1392 58.5623C46.1433 58.897 46.9221 59.3444 47.4969 59.8905L47.8413 59.528L48.1857 59.1655C47.4806 58.4956 46.5634 57.983 45.4554 57.6137L45.2973 58.088ZM47.8413 59.528L47.5159 59.9076C48.1115 60.4182 48.6315 61.1763 49.059 62.2144L49.5213 62.024L49.9837 61.8336C49.5151 60.6957 48.9151 59.7898 48.1667 59.1484L47.8413 59.528ZM49.5213 62.024L49.0553 62.2052C49.477 63.2896 49.6933 64.5384 49.6933 65.96H50.1933H50.6933C50.6933 64.4376 50.4616 63.0624 49.9873 61.8428L49.5213 62.024ZM50.1933 65.96H49.6933V80.456H50.1933H50.6933V65.96H50.1933ZM50.1933 80.456H49.6933C49.6933 83.5873 48.7525 85.7268 46.9728 87.0105L47.2653 87.416L47.5578 87.8215C49.6822 86.2892 50.6933 83.7887 50.6933 80.456H50.1933ZM47.2653 87.416L46.9741 87.0096C45.1841 88.2924 42.2111 88.98 37.9533 88.98V89.48V89.98C42.2715 89.98 45.5065 89.2916 47.5566 87.8224L47.2653 87.416ZM43.2333 72.632H43.7333V65.336H43.2333H42.7333V72.632H43.2333ZM43.2333 65.336H43.7333C43.7333 64.2488 43.6419 63.3962 43.3993 62.8705L42.9453 63.08L42.4913 63.2895C42.6327 63.5958 42.7333 64.2472 42.7333 65.336H43.2333ZM42.9453 63.08L43.412 62.9005C43.173 62.2791 42.6304 61.9272 41.9498 61.7759L41.8413 62.264L41.7328 62.7521C42.2042 62.8568 42.3976 63.0489 42.4786 63.2595L42.9453 63.08ZM41.8413 62.264L41.9558 61.7773C41.3479 61.6342 40.285 61.572 38.8173 61.572V62.072V62.572C40.2936 62.572 41.2467 62.6377 41.7268 62.7507L41.8413 62.264ZM38.8173 62.072V61.572C37.47 61.572 36.4505 61.6505 35.8035 61.8302L35.9373 62.312L36.0711 62.7938C36.5762 62.6535 37.4766 62.572 38.8173 62.572V62.072ZM35.9373 62.312L35.8228 61.8253C35.1502 61.9835 34.638 62.3623 34.3737 62.979L34.8333 63.176L35.2929 63.373C35.4126 63.0937 35.6364 62.8965 36.0518 62.7987L35.9373 62.312ZM34.8333 63.176L34.3793 62.9665C34.1377 63.4901 34.0453 64.3075 34.0453 65.336H34.5453H35.0453C35.0453 64.3165 35.145 63.6939 35.2873 63.3855L34.8333 63.176ZM34.5453 65.336H34.0453V70.088H34.5453H35.0453V65.336H34.5453ZM34.5453 70.088H34.0453C34.0453 70.8761 34.1401 71.5413 34.3944 72.0074L34.8333 71.768L35.2723 71.5286C35.1425 71.2907 35.0453 70.8359 35.0453 70.088H34.5453ZM34.8333 71.768L34.4046 72.0252C34.6991 72.5161 35.2428 72.7872 35.8768 72.9281L35.9853 72.44L36.0938 71.9519C35.5758 71.8368 35.3516 71.6599 35.2621 71.5108L34.8333 71.768ZM35.9853 72.44L35.8823 72.9293C36.5442 73.0686 37.5481 73.132 38.8653 73.132V72.632V72.132C37.5586 72.132 36.6424 72.0674 36.0883 71.9507L35.9853 72.44ZM38.8653 72.632V73.132H43.2333V72.632V72.132H38.8653V72.632ZM55.8611 65.768V65.268H55.3611V65.768H55.8611ZM62.8691 65.768H63.3691V65.268H62.8691V65.768ZM62.8691 68.6H62.3691L63.3591 68.6994L62.8691 68.6ZM74.6771 66.152L74.4483 66.5968L74.4586 66.6018L74.6771 66.152ZM76.9331 68.744L76.4575 68.8983L76.9394 70.3843L77.4099 68.8946L76.9331 68.744ZM79.1411 66.104L78.9226 65.6542L78.9175 65.6568L79.1411 66.104ZM88.8371 66.008L88.6352 66.4656L88.6467 66.4703L88.8371 66.008ZM91.0931 68.12L90.6341 68.3189L90.64 68.3314L91.0931 68.12ZM91.7651 89V89.5H92.2651V89H91.7651ZM84.7571 89H84.2571V89.5H84.7571V89ZM84.5651 70.76L84.0842 70.8974L84.0872 70.907L84.5651 70.76ZM83.7011 69.848L83.5215 70.3148L83.5329 70.3189L83.7011 69.848ZM78.6611 69.848L78.5272 69.3662L78.52 69.3683L78.6611 69.848ZM77.5571 70.76L77.0975 70.563L77.0938 70.5717L77.0904 70.5805L77.5571 70.76ZM77.3171 89V89.5H77.8171V89H77.3171ZM70.3091 89H69.8091V89.5H70.3091V89ZM70.1171 70.76L69.6362 70.8974L69.6392 70.907L70.1171 70.76ZM69.2531 69.848L69.0735 70.3148L69.0849 70.3189L69.2531 69.848ZM64.2131 69.848L64.0792 69.3662L64.072 69.3683L64.2131 69.848ZM63.1091 70.76L62.6495 70.563L62.6458 70.5717L62.6424 70.5805L63.1091 70.76ZM62.8691 89V89.5H63.3691V89H62.8691ZM55.8611 89H55.3611V89.5H55.8611V89ZM55.8611 65.768V66.268H62.8691V65.768V65.268H55.8611V65.768ZM62.8691 65.768H62.3691V68.6H62.8691H63.3691V65.768H62.8691ZM62.8691 68.6L63.3591 68.6994C63.5477 67.7696 64.1146 67.0603 65.1384 66.5663C66.1851 66.0612 67.7027 65.788 69.7331 65.788V65.288V64.788C67.6354 64.788 65.945 65.0667 64.7038 65.6657C63.4396 66.2757 62.6384 67.2224 62.379 68.5006L62.8691 68.6ZM69.7331 65.288V65.788C71.8796 65.788 73.4332 66.0745 74.4484 66.5966L74.6771 66.152L74.9057 65.7074C73.6809 65.0775 71.9385 64.788 69.7331 64.788V65.288ZM74.6771 66.152L74.4586 66.6018C75.4563 67.0864 76.1154 67.8437 76.4575 68.8983L76.9331 68.744L77.4087 68.5897C76.9827 67.2763 76.1378 66.3056 74.8955 65.7022L74.6771 66.152ZM76.9331 68.744L77.4099 68.8946C77.7553 67.8007 78.4041 67.0315 79.3647 66.5512L79.1411 66.104L78.9175 65.6568C77.702 66.2645 76.8788 67.2553 76.4563 68.5934L76.9331 68.744ZM79.1411 66.104L79.3595 66.5538C80.3769 66.0596 81.9655 65.788 84.1811 65.788V65.288V64.788C81.9166 64.788 80.1453 65.0604 78.9226 65.6542L79.1411 66.104ZM84.1811 65.288V65.788C86.1693 65.788 87.6403 66.0265 88.6352 66.4655L88.8371 66.008L89.0389 65.5505C87.8578 65.0295 86.2248 64.788 84.1811 64.788V65.288ZM88.8371 66.008L88.6467 66.4703C89.6306 66.8755 90.2766 67.4935 90.6343 68.3188L91.0931 68.12L91.5518 67.9212C91.0775 66.8265 90.2195 66.0365 89.0274 65.5457L88.8371 66.008ZM91.0931 68.12L90.64 68.3314C91.0454 69.2002 91.2651 70.3992 91.2651 71.96H91.7651H92.2651C92.2651 70.3208 92.0367 68.9598 91.5462 67.9086L91.0931 68.12ZM91.7651 71.96H91.2651V89H91.7651H92.2651V71.96H91.7651ZM91.7651 89V88.5H84.7571V89V89.5H91.7651V89ZM84.7571 89H85.2571V72.92H84.7571H84.2571V89H84.7571ZM84.7571 72.92H85.2571C85.2571 71.8952 85.1952 71.1077 85.043 70.613L84.5651 70.76L84.0872 70.907C84.1909 71.2442 84.2571 71.8968 84.2571 72.92H84.7571ZM84.5651 70.76L85.0458 70.6226C84.8724 70.0157 84.4653 69.59 83.8692 69.3771L83.7011 69.848L83.5329 70.3189C83.8328 70.426 84.0017 70.6083 84.0843 70.8974L84.5651 70.76ZM83.7011 69.848L83.8806 69.3813C83.3693 69.1847 82.5491 69.108 81.4931 69.108V69.608V70.108C82.5491 70.108 83.2008 70.1913 83.5216 70.3147L83.7011 69.848ZM81.4931 69.608V69.108C80.1765 69.108 79.1737 69.1867 78.5272 69.3662L78.6611 69.848L78.7949 70.3298C79.3005 70.1893 80.1856 70.108 81.4931 70.108V69.608ZM78.6611 69.848L78.52 69.3683C77.859 69.5627 77.3581 69.9549 77.0975 70.563L77.5571 70.76L78.0166 70.957C78.14 70.6691 78.3751 70.4533 78.8021 70.3277L78.6611 69.848ZM77.5571 70.76L77.0904 70.5805C76.8941 71.0908 76.8171 71.8937 76.8171 72.92H77.3171H77.8171C77.8171 71.8983 77.9 71.2612 78.0237 70.9395L77.5571 70.76ZM77.3171 72.92H76.8171V89H77.3171H77.8171V72.92H77.3171ZM77.3171 89V88.5H70.3091V89V89.5H77.3171V89ZM70.3091 89H70.8091V72.92H70.3091H69.8091V89H70.3091ZM70.3091 72.92H70.8091C70.8091 71.8952 70.7472 71.1077 70.595 70.613L70.1171 70.76L69.6392 70.907C69.7429 71.2442 69.8091 71.8968 69.8091 72.92H70.3091ZM70.1171 70.76L70.5978 70.6226C70.4244 70.0157 70.0173 69.59 69.4212 69.3771L69.2531 69.848L69.0849 70.3189C69.3848 70.426 69.5537 70.6083 69.6363 70.8974L70.1171 70.76ZM69.2531 69.848L69.4326 69.3813C68.9213 69.1847 68.1011 69.108 67.0451 69.108V69.608V70.108C68.1011 70.108 68.7528 70.1913 69.0736 70.3147L69.2531 69.848ZM67.0451 69.608V69.108C65.7285 69.108 64.7257 69.1867 64.0792 69.3662L64.2131 69.848L64.3469 70.3298C64.8525 70.1893 65.7376 70.108 67.0451 70.108V69.608ZM64.2131 69.848L64.072 69.3683C63.411 69.5627 62.9101 69.9549 62.6495 70.563L63.1091 70.76L63.5686 70.957C63.692 70.6691 63.9271 70.4533 64.3541 70.3277L64.2131 69.848ZM63.1091 70.76L62.6424 70.5805C62.4461 71.0908 62.3691 71.8937 62.3691 72.92H62.8691H63.3691C63.3691 71.8983 63.452 71.2612 63.5757 70.9395L63.1091 70.76ZM62.8691 72.92H62.3691V89H62.8691H63.3691V72.92H62.8691ZM62.8691 89V88.5H55.8611V89V89.5H62.8691V89ZM55.8611 89H56.3611V65.768H55.8611H55.3611V89H55.8611ZM97.4279 88.76H96.9279V89.198L97.3621 89.2557L97.4279 88.76ZM97.4279 84.104L97.5026 83.6096L96.9279 83.5228V84.104H97.4279ZM109.956 84.68L110.145 85.1428V85.1428L109.956 84.68ZM110.34 79.976L110.031 80.3692L110.04 80.3762L110.049 80.3829L110.34 79.976ZM98.9639 78.008L98.667 78.4103L98.6733 78.4149L98.9639 78.008ZM99.8279 66.584L100.027 67.0428L100.033 67.04L99.8279 66.584ZM116.772 65.72H117.272V65.255L116.808 65.2213L116.772 65.72ZM116.772 70.184L116.734 70.6825L117.272 70.7239V70.184H116.772ZM104.628 69.992L104.425 69.5351L104.403 69.5447L104.383 69.5562L104.628 69.992ZM104.484 73.928L104.179 74.3243L104.189 74.332L104.199 74.3391L104.484 73.928ZM115.668 87.752L115.955 88.1616L115.959 88.1589L115.668 87.752ZM113.172 88.808L113.051 88.3229L113.047 88.3239L113.172 88.808ZM110.052 89.336L110.008 88.8379L110.004 88.8383L110.052 89.336ZM106.596 89.48V88.98C104.129 88.98 101.097 88.7426 97.4937 88.2643L97.4279 88.76L97.3621 89.2557C100.991 89.7374 104.07 89.98 106.596 89.98V89.48ZM97.4279 88.76H97.9279V84.104H97.4279H96.9279V88.76H97.4279ZM97.4279 84.104L97.3532 84.5984C101.799 85.27 104.922 85.612 106.692 85.612V85.112V84.612C105.006 84.612 101.953 84.282 97.5026 83.6096L97.4279 84.104ZM106.692 85.112V85.612C108.18 85.612 109.348 85.4689 110.145 85.1428L109.956 84.68L109.767 84.2172C109.156 84.4671 108.148 84.612 106.692 84.612V85.112ZM109.956 84.68L110.145 85.1428C110.571 84.9686 110.922 84.7077 111.164 84.3453C111.405 83.9833 111.512 83.5577 111.512 83.096H111.012H110.512C110.512 83.4023 110.443 83.6247 110.332 83.7906C110.221 83.9563 110.045 84.1034 109.767 84.2172L109.956 84.68ZM111.012 83.096H111.512V81.656H111.012H110.512V83.096H111.012ZM111.012 81.656H111.512C111.512 80.772 111.262 80.0204 110.631 79.5691L110.34 79.976L110.049 80.3829C110.314 80.5716 110.512 80.94 110.512 81.656H111.012ZM110.34 79.976L110.649 79.5828C110.338 79.3383 109.919 79.1851 109.442 79.0897C108.959 78.993 108.375 78.948 107.7 78.948V79.448V79.948C108.337 79.948 108.849 79.991 109.246 80.0703C109.649 80.1509 109.894 80.2617 110.031 80.3692L110.34 79.976ZM107.7 79.448V78.948H104.676V79.448V79.948H107.7V79.448ZM104.676 79.448V78.948C102.268 78.948 100.481 78.4774 99.2546 77.6011L98.9639 78.008L98.6733 78.4149C100.135 79.4586 102.156 79.948 104.676 79.948V79.448ZM98.9639 78.008L99.2609 77.6057C98.0625 76.7212 97.4479 75.441 97.4479 73.688H96.9479H96.4479C96.4479 75.711 97.1773 77.3108 98.667 78.4103L98.9639 78.008ZM96.9479 73.688H97.4479V70.856H96.9479H96.4479V73.688H96.9479ZM96.9479 70.856H97.4479C97.4479 69.9299 97.6673 69.1714 98.0825 68.5555C98.4986 67.9384 99.1351 67.4292 100.027 67.0428L99.8279 66.584L99.6291 66.1252C98.6008 66.5708 97.7973 67.1896 97.2533 67.9965C96.7085 68.8046 96.4479 69.7661 96.4479 70.856H96.9479ZM99.8279 66.584L100.033 67.04C101.855 66.2201 104.665 65.788 108.516 65.788V65.288V64.788C104.623 64.788 101.641 65.2199 99.6228 66.128L99.8279 66.584ZM108.516 65.288V65.788C110.032 65.788 112.767 65.9306 116.736 66.2187L116.772 65.72L116.808 65.2213C112.841 64.9334 110.072 64.788 108.516 64.788V65.288ZM116.772 65.72H116.272V70.184H116.772H117.272V65.72H116.772ZM116.772 70.184L116.81 69.6855C111.833 69.3026 108.989 69.108 108.324 69.108V69.608V70.108C108.939 70.108 111.727 70.2974 116.734 70.6825L116.772 70.184ZM108.324 69.608V69.108C107.371 69.108 106.572 69.1402 105.932 69.2067C105.304 69.2719 104.788 69.3739 104.425 69.5351L104.628 69.992L104.831 70.4489C105.044 70.3541 105.432 70.2641 106.036 70.2013C106.628 70.1398 107.389 70.108 108.324 70.108V69.608ZM104.628 69.992L104.383 69.5562C103.665 69.9602 103.36 70.6913 103.36 71.576H103.86H104.36C104.36 70.9247 104.567 70.5998 104.873 70.4278L104.628 69.992ZM103.86 71.576H103.36V72.824H103.86H104.36V71.576H103.86ZM103.86 72.824H103.36C103.36 73.4351 103.675 73.9369 104.179 74.3243L104.484 73.928L104.789 73.5317C104.46 73.2791 104.36 73.0449 104.36 72.824H103.86ZM104.484 73.928L104.199 74.3391C104.735 74.7097 105.461 74.86 106.308 74.86V74.36V73.86C105.555 73.86 105.065 73.7223 104.769 73.5169L104.484 73.928ZM106.308 74.36V74.86H109.38V74.36V73.86H106.308V74.36ZM109.38 74.36V74.86C112.19 74.86 114.21 75.3206 115.515 76.1709C116.783 76.997 117.424 78.2226 117.424 79.928H117.924H118.424C118.424 77.9214 117.641 76.363 116.061 75.3331C114.518 74.3274 112.266 73.86 109.38 73.86V74.36ZM117.924 79.928H117.424V82.856H117.924H118.424V79.928H117.924ZM117.924 82.856H117.424C117.424 83.914 117.228 84.8106 116.853 85.5604L117.3 85.784L117.747 86.0076C118.204 85.0934 118.424 84.038 118.424 82.856H117.924ZM117.3 85.784L116.853 85.5604C116.469 86.3288 115.975 86.9183 115.377 87.3451L115.668 87.752L115.959 88.1589C116.705 87.6257 117.299 86.9032 117.747 86.0076L117.3 85.784ZM115.668 87.752L115.381 87.3424C114.805 87.7454 114.035 88.0769 113.051 88.3229L113.172 88.808L113.293 89.2931C114.357 89.0271 115.25 88.6546 115.955 88.1616L115.668 87.752ZM113.172 88.808L113.047 88.3239C112.083 88.5726 111.07 88.7442 110.008 88.8379L110.052 89.336L110.096 89.8341C111.209 89.7358 112.277 89.5554 113.297 89.2921L113.172 88.808ZM110.052 89.336L110.004 88.8383C109.032 88.9324 107.897 88.98 106.596 88.98V89.48V89.98C107.919 89.98 109.088 89.9316 110.1 89.8337L110.052 89.336Z" fill="black" mask="url(#path-2-outside-1_307_3515)"/>
</svg>
